<svg xmlns="http://www.w3.org/2000/svg" width="512" height="511.986" viewBox="0 0 512 511.986">
    <path fill="#03c04a" d="M512 393.264V86.857A54.857 54.857 0 0 0 457.143 32H54.857A54.857 54.857 0 0 0 0 86.857v402.272a54.857 54.857 0 0 0 54.857 54.857h306.421a54.858 54.858 0 0 0 38.79-16.067l95.865-95.865A54.858 54.858 0 0 0 512 393.264zm-146.286 91.428V397.7h86.992zm91.429-397.835v255.986H338.286a27.428 27.428 0 0 0-27.429 27.429v118.857h-256V86.857z" transform="translate(0 -32)"/>
    <path fill="#03c04a" stroke="#03c04a" stroke-width="20px" d="M305.594 53.526c-38.533-32.4-98.065-27.533-134.93 10-36.866-37.532-96.4-42.466-134.931-10-50.132 42.2-42.8 111-7.067 147.464L145.6 320.12a35.014 35.014 0 0 0 50.132.067L312.66 201.056c35.666-36.466 43.133-105.265-7.066-147.53zm-15.733 125L172.93 297.654c-1.6 1.6-2.933 1.6-4.533 0L51.466 178.523c-24.333-24.8-29.266-71.732 4.867-100.465 25.933-21.8 65.932-18.533 91 7l23.333 23.8L194 85.058c25.2-25.666 65.2-28.8 91-7.067 34.06 28.733 28.993 75.932 4.861 100.532z" transform="translate(85.334 69.322)"/>
</svg>
