<svg xmlns="http://www.w3.org/2000/svg" width="512" height="512" viewBox="0 0 512 512">
    <path fill="#424242" d="M256 107.1a99.1 99.1 0 1 0 99.1 99.1 99.122 99.122 0 0 0-99.1-99.1zm0 148.645a49.548 49.548 0 1 1 49.548-49.548A49.561 49.561 0 0 1 256 255.742zM256 8C114.581 8 0 122.581 0 264s114.581 256 256 256 256-114.581 256-256S397.419 8 256 8zm0 462.452a205.276 205.276 0 0 1-134.3-49.962 88.929 88.929 0 0 1 71.845-40.774c21.471 6.606 41.91 9.91 62.452 9.91a206.745 206.745 0 0 0 62.452-9.91A89.189 89.189 0 0 1 390.3 420.49 205.276 205.276 0 0 1 256 470.452zm167.948-86.813c-25.187-32.413-64.1-53.574-108.49-53.574-10.529 0-26.839 9.91-59.458 9.91-32.516 0-48.929-9.91-59.458-9.91-44.284 0-83.2 21.161-108.49 53.574A204.972 204.972 0 0 1 49.548 264c0-113.858 92.594-206.452 206.452-206.452S462.452 150.142 462.452 264a204.973 204.973 0 0 1-38.504 119.639z" transform="translate(0 -8)"/>
</svg>
